<svg width="523" height="76" viewBox="0 0 523 76" fill="none" xmlns="http://www.w3.org/2000/svg">
<path d="M49.5455 24.7812C49.0483 23.053 48.3499 21.526 47.4503 20.2003C46.5507 18.8509 45.4498 17.7145 44.1477 16.7912C42.8693 15.8442 41.4015 15.1222 39.7443 14.625C38.1108 14.1278 36.2997 13.8793 34.3111 13.8793C30.5942 13.8793 27.3272 14.8026 24.5099 16.6491C21.7164 18.4957 19.5384 21.1828 17.9759 24.7102C16.4134 28.214 15.6321 32.4991 15.6321 37.5653C15.6321 42.6316 16.4015 46.9403 17.9403 50.4915C19.4792 54.0426 21.6572 56.7533 24.4744 58.6236C27.2917 60.4702 30.6179 61.3935 34.4531 61.3935C37.9332 61.3935 40.9044 60.7779 43.3665 59.5469C45.8523 58.2921 47.7462 56.5284 49.0483 54.2557C50.3741 51.983 51.0369 49.2959 51.0369 46.1946L54.1619 46.6562H35.4119V35.0795H65.8452V44.2415C65.8452 50.6335 64.4957 56.1259 61.7969 60.7188C59.098 65.2879 55.3812 68.8153 50.6463 71.3011C45.9115 73.7633 40.4901 74.9943 34.3821 74.9943C27.5639 74.9943 21.5743 73.491 16.4134 70.4844C11.2524 67.4541 7.22775 63.1572 4.33949 57.5938C1.47491 52.0066 0.0426137 45.3778 0.0426137 37.7074C0.0426137 31.8125 0.894886 26.5568 2.59943 21.9403C4.32765 17.3002 6.74242 13.3703 9.84375 10.1506C12.9451 6.93087 16.5554 4.48058 20.6747 2.79971C24.794 1.11884 29.2566 0.278406 34.0625 0.278406C38.1818 0.278406 42.017 0.8821 45.5682 2.08949C49.1193 3.2732 52.268 4.95407 55.0142 7.1321C57.7841 9.31013 60.045 11.9025 61.7969 14.9091C63.5488 17.892 64.6733 21.1828 65.1705 24.7812H49.5455ZM92.6651 75.0298C89.185 75.0298 86.0837 74.4261 83.3612 73.2188C80.6386 71.9877 78.4843 70.1766 76.8981 67.7855C75.3356 65.3707 74.5543 62.3641 74.5543 58.7656C74.5543 55.7353 75.1107 53.1903 76.2234 51.1307C77.3361 49.071 78.8512 47.4138 80.7688 46.1591C82.6864 44.9044 84.8645 43.9574 87.3029 43.3182C89.765 42.679 92.3455 42.2292 95.0444 41.9688C98.2167 41.6373 100.774 41.3295 102.715 41.0455C104.656 40.7377 106.065 40.2879 106.941 39.696C107.817 39.1042 108.255 38.2282 108.255 37.0682V36.8551C108.255 34.6061 107.544 32.866 106.124 31.6349C104.727 30.4039 102.739 29.7884 100.158 29.7884C97.4355 29.7884 95.2693 30.392 93.6594 31.5994C92.0496 32.7831 90.9843 34.2746 90.4634 36.0739L76.4719 34.9375C77.1822 31.6231 78.579 28.7585 80.6623 26.3438C82.7456 23.9053 85.4326 22.035 88.7234 20.733C92.0378 19.4072 95.873 18.7443 100.229 18.7443C103.259 18.7443 106.159 19.0994 108.929 19.8097C111.723 20.5199 114.197 21.6207 116.351 23.1122C118.529 24.6037 120.246 26.5213 121.5 28.8651C122.755 31.1851 123.382 33.9669 123.382 37.2102V74H109.036V66.4361H108.61C107.734 68.1406 106.562 69.6439 105.094 70.946C103.626 72.2244 101.863 73.2306 99.8029 73.9645C97.7433 74.6747 95.364 75.0298 92.6651 75.0298ZM96.9975 64.5895C99.2229 64.5895 101.188 64.1515 102.892 63.2756C104.597 62.3759 105.935 61.1686 106.905 59.6534C107.876 58.1383 108.361 56.4219 108.361 54.5043V48.7159C107.888 49.0237 107.237 49.3078 106.408 49.5682C105.603 49.8049 104.692 50.0298 103.674 50.2429C102.656 50.4323 101.638 50.6098 100.62 50.7756C99.6017 50.9176 98.6784 51.0478 97.8498 51.1662C96.0742 51.4266 94.5236 51.8409 93.1978 52.4091C91.872 52.9773 90.8422 53.7467 90.1083 54.7173C89.3744 55.6643 89.0075 56.848 89.0075 58.2685C89.0075 60.3281 89.7532 61.9025 91.2447 62.9915C92.7598 64.0568 94.6774 64.5895 96.9975 64.5895ZM135.119 74V19.4545H149.537V29.0781H150.176C151.312 25.8821 153.206 23.3608 155.858 21.5142C158.509 19.6676 161.681 18.7443 165.375 18.7443C169.115 18.7443 172.299 19.6795 174.927 21.5497C177.555 23.3963 179.307 25.9058 180.183 29.0781H180.751C181.864 25.9531 183.876 23.4555 186.788 21.5852C189.724 19.6913 193.192 18.7443 197.193 18.7443C202.283 18.7443 206.414 20.366 209.586 23.6094C212.782 26.8291 214.38 31.3982 214.38 37.3168V74H199.288V40.2997C199.288 37.2694 198.483 34.9967 196.873 33.4815C195.263 31.9664 193.251 31.2088 190.836 31.2088C188.09 31.2088 185.948 32.0848 184.409 33.8366C182.87 35.5649 182.1 37.8494 182.1 40.6903V74H167.434V39.9801C167.434 37.3049 166.665 35.1742 165.126 33.5881C163.611 32.0019 161.61 31.2088 159.125 31.2088C157.444 31.2088 155.929 31.6349 154.579 32.4872C153.253 33.3158 152.2 34.4877 151.419 36.0028C150.637 37.4943 150.247 39.2462 150.247 41.2585V74H135.119ZM251.188 75.0653C245.577 75.0653 240.748 73.929 236.699 71.6562C232.675 69.3598 229.573 66.1165 227.395 61.9261C225.217 57.7121 224.128 52.7287 224.128 46.9759C224.128 41.3651 225.217 36.4408 227.395 32.2031C229.573 27.9654 232.639 24.6629 236.593 22.2955C240.57 19.928 245.234 18.7443 250.584 18.7443C254.183 18.7443 257.533 19.3243 260.634 20.4844C263.759 21.6207 266.481 23.3371 268.801 25.6335C271.145 27.9299 272.968 30.8182 274.27 34.2983C275.572 37.7547 276.223 41.803 276.223 46.4432V50.598H230.165V41.223H261.983C261.983 39.045 261.51 37.1155 260.563 35.4347C259.616 33.7538 258.302 32.4399 256.621 31.4929C254.964 30.5223 253.034 30.0369 250.833 30.0369C248.536 30.0369 246.5 30.5696 244.725 31.6349C242.973 32.6766 241.6 34.0852 240.605 35.8608C239.611 37.6127 239.102 39.5658 239.078 41.7202V50.6335C239.078 53.3324 239.576 55.6643 240.57 57.6293C241.588 59.5942 243.02 61.1094 244.867 62.1747C246.713 63.2401 248.903 63.7727 251.436 63.7727C253.117 63.7727 254.656 63.536 256.053 63.0625C257.45 62.589 258.645 61.8788 259.64 60.9318C260.634 59.9848 261.391 58.8248 261.912 57.4517L275.904 58.375C275.194 61.7367 273.738 64.6723 271.536 67.1818C269.358 69.6676 266.541 71.6089 263.084 73.0057C259.651 74.3788 255.686 75.0653 251.188 75.0653Z" fill="white"/>
<path d="M325.833 22.1889C325.549 19.3243 324.329 17.099 322.175 15.5128C320.021 13.9266 317.097 13.1335 313.404 13.1335C310.894 13.1335 308.775 13.4886 307.047 14.1989C305.319 14.8854 303.993 15.8442 303.07 17.0753C302.17 18.3063 301.721 19.7031 301.721 21.2656C301.673 22.5677 301.945 23.7041 302.537 24.6747C303.153 25.6454 303.993 26.4858 305.059 27.196C306.124 27.8826 307.355 28.4863 308.752 29.0071C310.149 29.5043 311.64 29.9304 313.226 30.2855L319.76 31.848C322.933 32.5582 325.845 33.5052 328.496 34.6889C331.148 35.8726 333.444 37.3286 335.385 39.0568C337.327 40.785 338.83 42.821 339.895 45.1648C340.984 47.5085 341.541 50.1955 341.564 53.2259C341.541 57.6766 340.404 61.5355 338.155 64.8026C335.93 68.0459 332.71 70.5672 328.496 72.3665C324.306 74.142 319.251 75.0298 313.333 75.0298C307.462 75.0298 302.348 74.1302 297.992 72.331C293.659 70.5317 290.274 67.8684 287.836 64.3409C285.421 60.7898 284.154 56.3982 284.036 51.1662H298.915C299.081 53.6046 299.779 55.6406 301.01 57.2741C302.265 58.884 303.934 60.1032 306.017 60.9318C308.124 61.7367 310.504 62.1392 313.155 62.1392C315.759 62.1392 318.02 61.7604 319.938 61.0028C321.879 60.2453 323.382 59.1918 324.448 57.8423C325.513 56.4929 326.046 54.9422 326.046 53.1903C326.046 51.5568 325.56 50.1837 324.59 49.071C323.643 47.9583 322.246 47.0114 320.4 46.2301C318.577 45.4489 316.339 44.7386 313.688 44.0994L305.769 42.1108C299.637 40.6193 294.796 38.2874 291.245 35.1151C287.694 31.9427 285.93 27.6695 285.953 22.2955C285.93 17.892 287.102 14.045 289.469 10.7543C291.86 7.46354 295.139 4.89489 299.306 3.04829C303.472 1.2017 308.207 0.278406 313.51 0.278406C318.908 0.278406 323.619 1.2017 327.644 3.04829C331.692 4.89489 334.841 7.46354 337.09 10.7543C339.339 14.045 340.499 17.8565 340.57 22.1889H325.833ZM380.636 19.4545V30.8182H347.788V19.4545H380.636ZM355.245 6.38636H370.373V57.2386C370.373 58.6354 370.586 59.7244 371.012 60.5057C371.438 61.2633 372.03 61.7959 372.788 62.1037C373.569 62.4115 374.469 62.5653 375.487 62.5653C376.197 62.5653 376.907 62.5062 377.617 62.3878C378.327 62.2457 378.872 62.1392 379.251 62.0682L381.63 73.3253C380.872 73.562 379.807 73.8343 378.434 74.142C377.061 74.4735 375.392 74.6747 373.427 74.7457C369.781 74.8878 366.585 74.4025 363.839 73.2898C361.116 72.1771 358.997 70.4489 357.482 68.1051C355.967 65.7614 355.221 62.8021 355.245 59.2273V6.38636ZM406.044 75.0298C402.564 75.0298 399.463 74.4261 396.74 73.2188C394.018 71.9877 391.863 70.1766 390.277 67.7855C388.714 65.3707 387.933 62.3641 387.933 58.7656C387.933 55.7353 388.49 53.1903 389.602 51.1307C390.715 49.071 392.23 47.4138 394.148 46.1591C396.065 44.9044 398.243 43.9574 400.682 43.3182C403.144 42.679 405.724 42.2292 408.423 41.9688C411.596 41.6373 414.152 41.3295 416.094 41.0455C418.035 40.7377 419.444 40.2879 420.32 39.696C421.196 39.1042 421.634 38.2282 421.634 37.0682V36.8551C421.634 34.6061 420.923 32.866 419.503 31.6349C418.106 30.4039 416.117 29.7884 413.537 29.7884C410.814 29.7884 408.648 30.392 407.038 31.5994C405.429 32.7831 404.363 34.2746 403.842 36.0739L389.851 34.9375C390.561 31.6231 391.958 28.7585 394.041 26.3438C396.125 23.9053 398.812 22.035 402.102 20.733C405.417 19.4072 409.252 18.7443 413.608 18.7443C416.638 18.7443 419.538 19.0994 422.308 19.8097C425.102 20.5199 427.576 21.6207 429.73 23.1122C431.908 24.6037 433.625 26.5213 434.879 28.8651C436.134 31.1851 436.761 33.9669 436.761 37.2102V74H422.415V66.4361H421.989C421.113 68.1406 419.941 69.6439 418.473 70.946C417.005 72.2244 415.241 73.2306 413.182 73.9645C411.122 74.6747 408.743 75.0298 406.044 75.0298ZM410.376 64.5895C412.602 64.5895 414.567 64.1515 416.271 63.2756C417.976 62.3759 419.313 61.1686 420.284 59.6534C421.255 58.1383 421.74 56.4219 421.74 54.5043V48.7159C421.267 49.0237 420.616 49.3078 419.787 49.5682C418.982 49.8049 418.071 50.0298 417.053 50.2429C416.035 50.4323 415.017 50.6098 413.999 50.7756C412.981 50.9176 412.057 51.0478 411.229 51.1662C409.453 51.4266 407.902 51.8409 406.577 52.4091C405.251 52.9773 404.221 53.7467 403.487 54.7173C402.753 55.6643 402.386 56.848 402.386 58.2685C402.386 60.3281 403.132 61.9025 404.624 62.9915C406.139 64.0568 408.056 64.5895 410.376 64.5895ZM448.498 74V19.4545H463.164V28.9716H463.732C464.727 25.5862 466.396 23.0294 468.739 21.3011C471.083 19.5492 473.782 18.6733 476.836 18.6733C477.594 18.6733 478.41 18.7206 479.286 18.8153C480.162 18.91 480.932 19.0402 481.594 19.206V32.6293C480.884 32.4162 479.902 32.2268 478.647 32.0611C477.392 31.8954 476.244 31.8125 475.202 31.8125C472.977 31.8125 470.988 32.2978 469.237 33.2685C467.508 34.2154 466.135 35.5412 465.117 37.2457C464.123 38.9503 463.626 40.9152 463.626 43.1406V74H448.498ZM521.163 19.4545V30.8182H488.315V19.4545H521.163ZM495.772 6.38636H510.9V57.2386C510.9 58.6354 511.113 59.7244 511.539 60.5057C511.966 61.2633 512.557 61.7959 513.315 62.1037C514.096 62.4115 514.996 62.5653 516.014 62.5653C516.724 62.5653 517.434 62.5062 518.145 62.3878C518.855 62.2457 519.399 62.1392 519.778 62.0682L522.157 73.3253C521.4 73.562 520.334 73.8343 518.961 74.142C517.588 74.4735 515.919 74.6747 513.954 74.7457C510.308 74.8878 507.112 74.4025 504.366 73.2898C501.644 72.1771 499.525 70.4489 498.01 68.1051C496.494 65.7614 495.749 62.8021 495.772 59.2273V6.38636Z" fill="#E40000"/>
</svg>
